<?xml version="1.0" encoding="utf-8"?>
<!-- Generator: Adobe Illustrator 21.1.0, SVG Export Plug-In . SVG Version: 6.00 Build 0)  -->
<svg version="1.1" id="Layer_1" xmlns="http://www.w3.org/2000/svg" xmlns:xlink="http://www.w3.org/1999/xlink" x="0px" y="0px"
	 viewBox="0 0 239.5 166" style="enable-background:new 0 0 239.5 166;" xml:space="preserve">
<style type="text/css">
	.st0{fill:#5D87A1;}
	.st1{fill:#00758F;}
	.st2{fill:#F29111;}
</style>
<path class="st0" d="M147.8,41.7c-0.8,0-1.4,0.1-1.9,0.2V42h0.1c0.4,0.7,1,1.3,1.5,1.9c0.4,0.7,0.7,1.5,1.1,2.2l0.1-0.1
	c0.7-0.5,1-1.2,1-2.3c-0.3-0.3-0.3-0.7-0.6-1C148.8,42.3,148.1,42,147.8,41.7"/>
<g>
	<path class="st1" d="M73.3,134.1h-6.5c-0.2-10.9-0.9-21.2-1.9-30.9h-0.1L55,134.1h-4.9l-9.8-30.9h-0.1c-0.7,9.3-1.2,19.5-1.4,30.9
		h-5.9c0.4-13.8,1.3-26.7,2.9-38.7h8l9.4,28.5h0.1l9.4-28.5h7.7C72,109.4,73,122.4,73.3,134.1"/>
	<path class="st1" d="M101.4,105.5c-2.6,14.3-6.1,24.7-10.4,31.2c-3.4,5-7.1,7.5-11.1,7.5c-1.1,0-2.4-0.3-4-1v-3.5
		c0.8,0.1,1.7,0.2,2.7,0.2c1.9,0,3.4-0.5,4.5-1.6c1.4-1.3,2.1-2.7,2.1-4.2c0-1.1-0.5-3.3-1.6-6.6l-7.1-22.1h6.4L88,122
		c1.1,3.8,1.6,6.4,1.4,7.9c2.8-7.5,4.7-15.6,5.9-24.4C95.3,105.5,101.4,105.5,101.4,105.5z"/>
	<polygon class="st2" points="187.7,134.1 169.3,134.1 169.3,95.3 175.5,95.3 175.5,129.3 187.7,129.3 	"/>
	<path class="st2" d="M164.5,135l-7.1-3.5c0.6-0.5,1.2-1.1,1.8-1.7c3-3.6,4.5-8.8,4.5-15.8c0-12.8-5-19.2-15.1-19.2
		c-4.9,0-8.8,1.6-11.5,4.9c-3,3.6-4.5,8.8-4.5,15.7c0,6.8,1.3,11.8,4,15c2.4,2.9,6.1,4.3,11.1,4.3c1.8,0,3.5-0.2,5.1-0.7l9.3,5.4
		L164.5,135z M141.4,126.3c-1.6-2.5-2.4-6.6-2.4-12.2c0-9.8,3-14.6,8.9-14.6c3.1,0,5.4,1.2,6.8,3.5c1.6,2.5,2.4,6.5,2.4,12.1
		c0,9.8-3,14.8-8.9,14.8C145.2,129.8,142.9,128.6,141.4,126.3"/>
	<path class="st2" d="M129.8,123.3c0,3.3-1.2,6-3.6,8.1s-5.6,3.2-9.7,3.2c-3.8,0-7.5-1.2-11-3.6l1.7-3.3c3.1,1.5,5.8,2.3,8.3,2.3
		c2.3,0,4.2-0.5,5.5-1.5s2.1-2.5,2.1-4.3c0-2.3-1.6-4.3-4.5-5.9c-2.7-1.5-8.1-4.6-8.1-4.6c-2.9-2.1-4.4-4.4-4.4-8.2
		c0-3.1,1.1-5.7,3.3-7.6c2.2-1.9,5-2.9,8.5-2.9c3.6,0,6.9,1,9.8,2.9l-1.5,3.3c-2.5-1.1-5-1.6-7.5-1.6c-2,0-3.5,0.5-4.6,1.4
		c-1.1,1-1.7,2.2-1.7,3.7c0,2.3,1.6,4.3,4.7,6c2.8,1.5,8.3,4.7,8.3,4.7C128.3,117.3,129.8,119.6,129.8,123.3"/>
	<path class="st1" d="M195.5,82.3c-3.7-0.1-6.6,0.3-9.1,1.3c-0.7,0.3-1.8,0.3-1.9,1.2c0.4,0.4,0.4,1,0.8,1.5
		c0.6,0.9,1.5,2.2,2.4,2.9c1,0.7,2,1.5,3,2.2c1.8,1.1,3.9,1.8,5.7,2.9c1,0.7,2.1,1.5,3.1,2.2c0.5,0.4,0.8,1,1.5,1.2v-0.1
		c-0.3-0.4-0.4-1-0.7-1.5c-0.5-0.5-0.9-0.9-1.4-1.4c-1.4-1.8-3-3.4-4.9-4.7c-1.5-1-4.8-2.4-5.4-4.2c0,0,0,0-0.1-0.1
		c1-0.1,2.2-0.5,3.2-0.8c1.6-0.4,3-0.3,4.7-0.7c0.8-0.2,1.5-0.4,2.3-0.7v-0.4c-0.8-0.8-1.5-2-2.3-2.8c-2.4-2.1-5-4.1-7.7-5.8
		c-1.5-0.9-3.3-1.5-4.9-2.3c-0.6-0.3-1.5-0.4-1.8-0.9c-0.8-1-1.3-2.4-1.9-3.6c-1.4-2.6-2.7-5.4-3.8-8.1c-0.8-1.8-1.4-3.6-2.4-5.3
		c-4.8-8-10.1-12.8-18.1-17.5c-1.7-1-3.8-1.4-6-1.9c-1.2,0-2.3-0.1-3.5-0.2c-0.8-0.3-1.5-1.2-2.2-1.6c-2.7-1.7-9.5-5.3-11.5-0.5
		c-1.3,3,1.9,6,2.9,7.6c0.8,1.1,1.8,2.3,2.4,3.5c0.3,0.8,0.4,1.6,0.8,2.5c0.7,2.1,1.4,4.4,2.4,6.3c0.5,1,1.1,2,1.7,2.9
		c0.4,0.5,1,0.7,1.2,1.6c-0.7,0.9-0.7,2.3-1.1,3.5c-1.7,5.3-1,11.8,1.4,15.7c0.7,1.2,2.5,3.7,4.9,2.8c2.1-0.8,1.6-3.5,2.2-5.8
		c0.1-0.6,0-0.9,0.3-1.3V72c0.7,1.3,1.3,2.6,1.9,3.9c1.5,2.3,4,4.7,6.1,6.3c1.1,0.8,2,2.3,3.4,2.8v-0.1H163
		c-0.3-0.4-0.7-0.6-1.1-0.9c-0.8-0.8-1.8-1.9-2.4-2.8c-2-2.6-3.7-5.5-5.2-8.5c-0.8-1.5-1.4-3-2-4.5c-0.3-0.6-0.3-1.4-0.7-1.7
		c-0.7,1-1.7,1.9-2.2,3.2c-0.9,2-1,4.5-1.3,7.1c-0.2,0-0.1,0-0.2,0.1c-1.5-0.4-2-1.9-2.6-3.2c-1.4-3.3-1.6-8.7-0.4-12.5
		c0.3-1,1.7-4.1,1.2-5c-0.3-0.9-1.2-1.4-1.7-2.1c-0.6-0.9-1.3-2-1.7-3c-1.1-2.6-1.7-5.5-2.9-8.1c-0.6-1.2-1.5-2.5-2.3-3.6
		c-0.9-1.3-1.9-2.2-2.6-3.6c-0.2-0.5-0.6-1.4-0.2-1.9c0.1-0.4,0.3-0.5,0.7-0.6c0.6-0.5,2.3,0.1,2.9,0.4c1.7,0.7,3.2,1.4,4.6,2.3
		c0.7,0.5,1.4,1.4,2.2,1.6h1c1.5,0.3,3.2,0.1,4.6,0.5c2.5,0.8,4.7,2,6.7,3.2c6.1,3.9,11.2,9.4,14.6,16c0.6,1.1,0.8,2.1,1.3,3.2
		c1,2.3,2.2,4.6,3.2,6.9c1,2.2,1.9,4.4,3.3,6.3c0.7,1,3.5,1.5,4.8,2c0.9,0.4,2.4,0.8,3.2,1.3c1.6,1,3.2,2.1,4.7,3.2
		C193,80.2,195.4,81.4,195.5,82.3"/>
	<path class="st2" d="M200,134.1h1v-4.7h-1.5l-1.2,3.2l-1.3-3.2h-1.4v4.7h0.9v-3.6h0.1l1.4,3.6h0.7l1.3-3.6V134.1z M192.2,134.1h1
		v-3.9h1.3v-0.8h-3.8v0.8h1.4v3.9H192.2z"/>
</g>
</svg>
