<?xml version="1.0" encoding="utf-8"?>
<!-- Generator: Adobe Illustrator 21.1.0, SVG Export Plug-In . SVG Version: 6.00 Build 0)  -->
<svg version="1.1" id="Layer_1" xmlns="http://www.w3.org/2000/svg" xmlns:xlink="http://www.w3.org/1999/xlink" x="0px" y="0px"
	 viewBox="0 0 500 500" style="enable-background:new 0 0 500 500;" xml:space="preserve">
<style type="text/css">
	.st0{fill:#E14658;}
	.st1{fill:#22252C;}
</style>
<polyline class="st0" points="312.9,233.2 320.4,250.8 294.7,265.6 307.6,286 274.8,291.1 282.9,307.7 "/>
<polyline class="st0" points="358.4,221 370.1,244.8 354.5,256.4 365,274.8 370.1,284.4 "/>
<polyline class="st0" points="395.4,213.2 380.7,239.9 400.5,252.9 387.2,273.6 380.7,284.4 "/>
<polyline class="st0" points="442,198.7 450.1,224.1 429.9,244.8 442.8,264.9 "/>
<polyline class="st0" points="18.7,311.9 34.9,325.5 18.7,339.4 45.1,356.3 45.1,374.8 "/>
<g>
	<path class="st1" d="M356.1,108.9c-1.1-9-2.1-17.9-3.1-26.9c-0.1-0.5-0.2-0.9-0.3-1.4c-1.2-5.5-5.8-26.5-10.8-29.6l0,0.1
		c0,0,0-0.1-0.1-0.1c-10.7,28.2-32.7,42.3-65.9,42.3H152.4c-23,0-37.9,2.4-44.7,7.1c-6.8,4.7-12.2,16.6-16.2,35.6
		c20.9-6.4,45.8-9.7,74.7-9.7h25.4l-16.5,97.6c-18-16.8-46.1-28.9-72.6-26.5c-40.1,3.7-71.6,34.1-83.5,65.4
		c-6.1,16.1-8.5,33.6-7.2,50.9l22.2-5.9c0.1-2.4,0.3-4.9,0.6-7.4c3.2-26.6,16.4-50.7,40.8-67.9c15.9-11.2,36.1-18.2,56.7-13.3
		c4.1,1,5.9,1.6,9.1,2.9c1.7,0.7,3.4,1.5,5.1,2.3c0.7,0.4,1.4,0.7,2.1,1.1c0.3,0.2,0.6,0.3,0.7,0.4c0.1,0.1,0.3,0.2,0.4,0.3
		c2.7,1.6,5.3,3.3,7.8,5.1c1,0.7,1.9,1.4,2.8,2.1c0.2,0.1,0.3,0.3,0.5,0.4c0.1,0.1,0.2,0.2,0.4,0.4c1.6,1.5,3.3,2.9,4.7,4.4
		c0.8,0.8,3.2,3,6,5.2L148,383c-1.1,6.5-1.9,11.8-2.5,16c-8.4,0.9-16.9,1.2-25.3,0.9c-16.1-0.6-30.4-4-43.3-10.5
		c-0.7-0.4-1.4-0.7-2.1-1.1c-0.2-0.1-0.3-0.2-0.4-0.2c-0.1-0.1-0.2-0.1-0.3-0.2c-1.3-0.8-2.6-1.6-3.9-2.4c-1.4-0.9-2.8-1.9-4.2-2.9
		c-0.6-0.4-1.2-0.9-1.8-1.4c-0.3-0.2-0.5-0.4-0.7-0.5c0,0,0,0-0.1-0.1c-2.4-2-4.7-4.2-6.8-6.4c-0.4-0.4-2.2-2.4-2.6-2.8
		c-0.2-0.3-0.9-1.2-1.6-2L34,374.2c11.4,15.1,27.1,27.8,47.2,36.1c33.9,13.9,76.3,13,111,1.5c29.1-9.7,51.8-28.4,69.8-49.6
		c15.4-18.1,27.7-38.1,37.8-59l-34.1,9.1c-1,1.7-2,3.4-3,5c-13.7,22.4-30.8,43.9-54.3,59.8c-7.1,4.8-14.8,8.8-23,12.1
		c0.5-4.8,1.5-11.7,3.1-20.7l41.2-242.1h21.9c32.9,0,55.3-3.4,67.1-10.1c2.8-1.6,5.4-3.4,7.9-5.2c-2.2,16.3-5,32.5-8.1,48.7
		c-5,25.8-11.2,51.7-19.5,77.2l28-7.5c3-10.6,5.7-21.2,8.1-31.7c2.2-9.5,4.3-19,6.2-28.6c2.2,18.2,4.3,36.4,6.5,54.7l21.2-5.7
		C364.7,181.7,360.4,145.3,356.1,108.9z"/>
	<path class="st1" d="M451.4,407.2c-0.5-2.9-1.2-5.7-1.6-8.6c-1.2-8.9-1.6-18-1.8-27c-0.1-2.7-0.1-5.5-0.2-8.2c0-1.9,0-0.2,0-2.6
		c0-1.7,0-3.4,0-5.2c0-6.5,0-13,0.1-19.5c0.2-14.5,0.6-28.9,1.1-43.4c0.4-10,0.8-20,1.2-30l-23.5,6.3c-1.3,31-1.9,61.9-1.3,92.9
		c0.2,10.4,0.6,20.9,1.9,31.2c1,7.7,2.5,15.9,8.6,22c3.4,3.4,10.9,7.3,15.9,3.8c4-2.8,2.3-7.8-0.1-11.4
		C451.3,406,451.1,405,451.4,407.2z"/>
	<path class="st1" d="M461.2,79.6C461.2,79.6,461.2,79.6,461.2,79.6c-0.1-8.3-0.9-24-4-33.2l0-0.1c0,0,0,0,0,0c0,0,0-0.1,0-0.1
		l0,0.2c-8,3.7-14.2,16.9-17.8,26.5c-0.2,0.4-0.4,0.8-0.5,1.3c-8.6,25.2-16.4,47.9-25.1,73.2c-7.5,21.6-15,43.2-22.6,64.8l28.9-7.7
		c3.5-10.1,7.1-20.3,10.6-30.4c0.5-1.6,1.1-3.1,1.6-4.7c-0.3,4.6-0.6,9.3-0.9,13.9c-0.4,6.2-0.7,12.3-1.1,18.5l23.5-6.3
		c1.5-24.3,3.1-48.7,4.8-73c0.8-10.8,1.6-21.5,2.4-32.3c0-0.2,0-0.5,0.1-0.7c0.1-0.7,0.2-1.7,0.2-2.7
		C461.3,83.6,461.2,79.6,461.2,79.6z"/>
	<path class="st1" d="M357.1,297.9c1.1,7.2,8.3,18.9,18.9,15.6c4-1.2,5.4-5.3,6.7-8.3c2.3-5.1,4.3-10.3,6.3-15.5
		c1.5-3.8,3-7.7,4.4-11.6l-37.7,10.1C356.2,291.4,356.6,294.6,357.1,297.9z"/>
</g>
</svg>
